<?xml version="1.0" encoding="UTF-8"?>
<svg xmlns="http://www.w3.org/2000/svg" viewBox="0 0 233.28 500">
  <defs>
    <style>
      .cls-1 {
        fill: #fff;
      }

      .cls-2 {
        fill: none;
        stroke: #fff;
        stroke-miterlimit: 10;
      }

      .cls-3 {
        isolation: isolate;
      }

      .cls-4 {
        fill: #df895d;
      }

      .cls-5 {
        fill: #f8e9cb;
      }

      .cls-6 {
        fill: #e79c45;
      }

      .cls-7 {
        fill: #e06a43;
      }

      .cls-8 {
        fill: #2b3448;
      }

      .cls-9 {
        fill: #e79e73;
      }
    </style>
  </defs>
  <g id="OBJECTS">
    <g>
      <path class="cls-9" d="m160.64,220.58v17.4c0,1.44-2.38,5.39-2.38,5.39,0,0-.21,3.47-1.08,4.37-.87.9-7.32,5.91-7.32,5.91,0,0-2.45-1.73-.64-3.98,1.79-2.25,3.92-6.55,3.92-6.55l-1.73-10.98s-3.56,6.16-5.14,7.57c-1.57,1.41-3.98.32-3.98.32,0,0,3.24-7.77,3.98-9.31.73-1.55,1.32-8.51,3.53-9.25,0,0-10.56-35.96-10.85-38.27-.28-2.31-.26-4.82-.26-4.82l-3.92-9.18-.39,11.04s3.53,8.09,5.07,17.34c.45,2.68.89,8.05,1.25,14.69-4.12,3.58-15.56,11.51-36.24,11.51s-32.13-7.93-36.24-11.51c.35-6.64.8-12.01,1.25-14.69,1.54-9.24,5.07-17.34,5.07-17.34l-.39-11.04-3.92,9.18s.03,2.5-.26,4.82c-.29,2.31-10.85,38.27-10.85,38.27,2.22.74,2.79,7.71,3.53,9.25.73,1.54,3.98,9.31,3.98,9.31,0,0-2.4,1.09-3.98-.32-1.57-1.41-5.14-7.57-5.14-7.57l-1.73,10.98s2.12,4.3,3.92,6.55c1.8,2.25-.64,3.98-.64,3.98,0,0-6.45-5.01-7.33-5.91-.87-.89-1.08-4.37-1.08-4.37,0,0-2.38-3.95-2.38-5.39v-17.4c0-.26,2.89-29.09,3.47-34.87.58-5.78,2.63-9.57,2.63-9.57,0,0,2.06-16.73,5.07-32.81,3.02-16.08,7.33-20.45,11.75-22.79,4.44-2.35,22.67-8.16,22.67-8.16,0,0,14.94,1.43,20.46-6.82l.73,6.82s18.24,5.81,22.67,8.16c4.44,2.34,8.73,6.71,11.75,22.79,3.01,16.08,5.07,32.81,5.07,32.81,0,0,2.05,3.79,2.63,9.57.58,5.78,3.47,34.62,3.47,34.87Z"/>
      <path class="cls-7" d="m107.79,109.14c.95-.57,4.12-3.22,6.28-5.81l.41,3.79c-5.52,8.25-20.63,5.25-20.63,5.25l.87-8.01c2.05,2.22,4.54,4.28,5.36,4.77,1.39.83,3.85.89,3.85.89,0,0,2.47-.06,3.85-.89Z"/>
      <path class="cls-9" d="m117.21,89.13c-.09,1.74-.27,4.43-.51,6.8,0,0,.28,15.08-12.76,14.1,0,0-1.51-.04-2.83-.45-10.18-2.51-9.94-13.65-9.94-13.65-.24-2.37-.42-5.06-.51-6.8-.06-1.12-.09-1.84-.09-1.84,0,0,.02-3.28,1.23-7.36s3.68-5.14,5.07-4.97c1.38.17,2.93.98,7.07.98s5.68-.81,7.06-.98c1.39-.17,3.86.89,5.07,4.97s1.23,7.36,1.23,7.36c0,0-.02.72-.09,1.84Z"/>
      <path class="cls-7" d="m140.69,212.28c.14,2.56.26,5.32.36,8.18-12.34.66-36.09,22.99-36.09,22.99h-1.03s-23.75-22.32-36.09-22.99c.1-2.86.22-5.61.35-8.18,4.12,3.58,15.56,11.51,36.24,11.51s32.13-7.93,36.24-11.51Z"/>
      <path class="cls-9" d="m145.61,389.73c0,.96-.39,2.02-1.93,2.63-1.54.61-8.41,1.03-10.46,1.29-2.06.26-6.56-1.39-9.12-3.98,0,0-4.75,0-6.29-1.54-1.55-1.55,1.15-10.4,1.15-10.4,0,0-3.33-19.62-3.92-23.96-.58-4.33-3.18-42.38-2.99-48.07l-7.1-62.25s23.76-22.33,36.09-22.99c.22,6.3.35,13.13.31,19.58-.04,9.23-.41,17.71-1.28,22.9-2.45,14.74-6.94,38.43-6.94,38.43,0,0,3.22,19.97,2.89,31.34-.32,11.37-4.23,43.8-4.23,43.8,0,0,5.45,7.22,8.48,9.11,3.01,1.9,5.33,3.15,5.33,4.11Z"/>
      <path class="cls-9" d="m103.94,243.45l-7.1,62.25c.19,5.68-2.4,43.74-2.99,48.07-.58,4.34-3.92,23.96-3.92,23.96,0,0,2.7,8.86,1.16,10.4-1.55,1.54-6.29,1.54-6.29,1.54-2.57,2.6-7.07,4.24-9.12,3.98-2.06-.26-8.93-.68-10.47-1.29-1.54-.61-1.93-1.67-1.93-2.63s2.31-2.21,5.34-4.11c3.01-1.89,8.48-9.11,8.48-9.11,0,0-3.92-32.43-4.24-43.8s2.89-31.34,2.89-31.34c0,0-4.48-23.69-6.94-38.43-.87-5.18-1.23-13.67-1.28-22.9-.03-6.46.1-13.28.32-19.58,12.34.67,36.09,22.99,36.09,22.99Z"/>
      <path class="cls-9" d="m89.61,95.79c-.69-.5-2.36-2.61-2.41-5.32-.05-2.7.63-3.47,1.6-3.31.97.16,1.86,1.97,1.86,1.97.1,1.74.27,4.44.51,6.81,0,0-.86.35-1.56-.15Z"/>
      <path class="cls-9" d="m118.26,95.79c-.69.5-1.56.15-1.56.15.24-2.37.42-5.07.51-6.81,0,0,.89-1.81,1.86-1.97s1.65.62,1.6,3.31c-.06,2.7-1.72,4.82-2.41,5.32Z"/>
      <path class="cls-8" d="m104.08,66.33c17.26,0,14.99,20.83,14.99,20.83-.97.16-1.86,1.97-1.86,1.97.06-1.12.09-1.84.09-1.84,0,0-.02-3.27-1.23-7.35-1.21-4.08-3.68-5.14-5.07-4.97-1.39.17-2.93.98-7.07.98s-5.68-.81-7.07-.98c-1.39-.17-3.85.89-5.07,4.97-1.21,4.08-1.23,7.35-1.23,7.35,0,0,.03.73.09,1.84,0,0-.89-1.81-1.86-1.97,0,0-1.98-20.83,15.28-20.83Z"/>
      <path class="cls-7" d="m74.14,169.71c-.26,0-.48-.2-.5-.47-.07-1.04-1.67-25.37-1.67-27.01,0-.28.22-.5.5-.5s.5.22.5.5c0,1.6,1.65,26.69,1.67,26.94.02.28-.19.51-.47.53-.01,0-.02,0-.03,0Z"/>
      <path class="cls-7" d="m73.23,155.64c-.16,0-.32-.08-.41-.22-1.52-2.24-3.42-6.92-3.5-7.12-.1-.26.02-.55.28-.65.25-.1.55.02.65.28.02.05,1.95,4.78,3.41,6.93.15.23.09.54-.13.69-.09.06-.18.09-.28.09Z"/>
      <path class="cls-7" d="m88.74,161.45c-7.37,0-11.67-2.92-11.93-3.11-.23-.16-.28-.47-.12-.7.16-.23.47-.28.7-.12.09.06,9.13,6.17,23.42.43.26-.1.55.02.65.28.1.26-.02.55-.28.65-4.76,1.91-8.94,2.57-12.43,2.57Z"/>
      <path class="cls-7" d="m89.04,155.14c0,.89-1.05,1.61-2.34,1.61s-2.34-.72-2.34-1.61,1.05-1.61,2.34-1.61,2.34.72,2.34,1.61Z"/>
      <path class="cls-7" d="m51.34,247.6c-.21,0-.4-.13-.47-.34-.4-1.19-.71-3.72-.72-3.83l-.33-4.97c-.02-.28.19-.51.47-.53.28-.02.51.19.53.47l.33,4.94h0s.31,2.51.67,3.6c.09.26-.05.55-.32.63-.05.02-.11.03-.16.03Z"/>
      <path class="cls-7" d="m103.57,201.37c-.22,0-.43-.15-.49-.38-.07-.27.1-.54.36-.61,1.34-.34,2.61-.98,3.66-1.86.21-.18.53-.15.7.06.18.21.15.53-.06.7-1.17.98-2.58,1.69-4.06,2.06-.04.01-.08.02-.12.02Z"/>
      <path class="cls-7" d="m85.1,305.22c-2.23,0-4.47-.97-5.95-2.63-.18-.21-.17-.52.04-.71.21-.18.52-.17.71.04,1.52,1.71,3.96,2.58,6.22,2.21.27-.04.53.14.57.42.04.27-.14.53-.41.57-.39.06-.79.09-1.18.09Z"/>
      <path class="cls-7" d="m86.73,381.63c-.14,0-.28-.06-.38-.17-.18-.21-.16-.52.05-.71.93-.8,1.56-1.96,1.75-3.17.04-.27.3-.46.57-.42.27.04.46.3.42.57-.22,1.44-.98,2.82-2.08,3.78-.09.08-.21.12-.33.12Z"/>
      <path class="cls-7" d="m75.17,393.89c-.08,0-.17-.02-.25-.07-.63-.36-1.06-1.09-1.17-1.98-.02-.18-.09-.72.22-1.15.21-.29.51-.43.73-.53l1.83-.84c.25-.12.55,0,.66.24.12.25,0,.55-.24.66l-1.83.84c-.12.06-.29.13-.34.21-.04.05-.07.17-.04.44.07.58.33,1.04.68,1.24.24.14.32.44.18.68-.09.16-.26.25-.43.25Z"/>
      <path class="cls-7" d="m71.61,393.71c-.17,0-.34-.09-.44-.25-.42-.74-.81-1.54-.59-2.4.14-.54.53-1.03,1.09-1.38.46-.29.97-.45,1.43-.59.27-.08.54.07.63.33.08.26-.07.54-.33.63-.42.13-.85.26-1.2.48-.2.12-.55.39-.65.78-.13.5.16,1.07.49,1.66.14.24.05.54-.19.68-.08.04-.16.06-.25.06Z"/>
      <path class="cls-7" d="m69.05,393.24c-.14,0-.29-.06-.38-.18-.35-.42-.74-.89-.94-1.48-.26-.74-.13-1.5.32-2,.25-.27.56-.43.83-.56l1.53-.76c.25-.12.55-.02.67.23.12.25.02.55-.23.67l-1.53.76c-.21.11-.41.21-.53.34-.23.25-.22.68-.11,1,.15.42.46.8.77,1.17.18.21.15.53-.07.7-.09.08-.21.12-.32.12Z"/>
      <path class="cls-7" d="m65.76,393.14c-.18,0-.36-.1-.45-.27-.22-.43-.44-.89-.56-1.41-.14-.61-.1-1.19.12-1.68.22-.49.63-.91,1.19-1.21.46-.25.94-.4,1.41-.54.26-.08.54.07.62.34.08.26-.07.54-.34.62-.42.12-.85.25-1.21.45-.26.14-.59.39-.76.75-.16.36-.12.77-.06,1.05.09.4.28.78.48,1.18.13.25.03.55-.22.67-.07.04-.15.05-.23.05Z"/>
      <path class="cls-7" d="m134.57,169.8s-.02,0-.03,0c-.28-.02-.48-.26-.47-.53.02-.25,1.67-25.34,1.67-26.94,0-.28.22-.5.5-.5s.5.22.5.5c0,1.64-1.6,25.97-1.67,27.01-.02.26-.24.47-.5.47Z"/>
      <path class="cls-7" d="m135.48,155.73c-.1,0-.19-.03-.28-.09-.23-.15-.29-.47-.13-.69,1.46-2.15,3.39-6.89,3.4-6.93.1-.26.39-.38.65-.28.26.1.38.4.28.65-.08.2-1.99,4.88-3.5,7.12-.1.14-.25.22-.41.22Z"/>
      <path class="cls-7" d="m119.96,161.54c-3.49,0-7.67-.66-12.43-2.57-.26-.1-.38-.39-.28-.65.1-.26.39-.38.65-.28,14.29,5.74,23.33-.37,23.42-.43.23-.16.54-.1.7.12.16.23.1.54-.12.7-.26.18-4.56,3.11-11.93,3.11Z"/>
      <path class="cls-7" d="m157.36,247.69c-.05,0-.11,0-.16-.03-.26-.09-.4-.37-.32-.63.37-1.09.67-3.6.68-3.63l.33-4.92c.02-.28.27-.49.53-.47.28.02.48.26.47.53l-.33,4.94c-.02.13-.33,2.66-.72,3.85-.07.21-.27.34-.47.34Z"/>
      <path class="cls-7" d="m105.13,201.46s-.08,0-.12-.02c-1.48-.37-2.88-1.09-4.06-2.06-.21-.18-.24-.49-.06-.7.18-.21.49-.24.7-.06,1.06.88,2.33,1.53,3.66,1.86.27.07.43.34.36.61-.06.23-.26.38-.49.38Z"/>
      <path class="cls-7" d="m123.6,305.31c-.4,0-.79-.03-1.18-.09-.27-.04-.46-.3-.41-.57.04-.27.31-.46.57-.41,2.25.37,4.7-.5,6.22-2.21.18-.2.5-.22.71-.04.21.18.22.5.04.71-1.48,1.66-3.72,2.63-5.95,2.63Z"/>
      <path class="cls-7" d="m121.97,381.72c-.12,0-.23-.04-.33-.12-1.1-.96-1.86-2.33-2.08-3.78-.04-.27.14-.53.42-.57.27-.04.53.15.57.42.19,1.21.83,2.37,1.75,3.17.21.18.23.5.05.71-.1.11-.24.17-.38.17Z"/>
      <path class="cls-7" d="m133.53,393.98c-.17,0-.34-.09-.43-.25-.14-.24-.06-.54.18-.68.35-.2.61-.67.68-1.24.03-.27,0-.38-.04-.44-.05-.08-.21-.15-.34-.21l-1.83-.84c-.25-.12-.36-.41-.24-.66.12-.25.41-.36.66-.24l1.83.84c.22.1.52.24.73.53.21.29.28.66.22,1.15-.11.9-.54,1.62-1.17,1.98-.08.05-.16.07-.25.07Z"/>
      <path class="cls-7" d="m137.09,393.8c-.08,0-.17-.02-.25-.07-.24-.14-.32-.44-.19-.68.32-.56.62-1.16.49-1.66-.1-.39-.45-.66-.65-.78-.35-.22-.78-.35-1.2-.48-.26-.08-.41-.36-.33-.63.08-.26.36-.42.63-.33.45.14.96.3,1.43.58.56.35.95.84,1.09,1.38.24.94-.28,1.85-.59,2.4-.09.16-.26.25-.43.25Z"/>
      <path class="cls-7" d="m139.65,393.33c-.11,0-.23-.04-.32-.12-.21-.18-.24-.49-.07-.7.31-.37.62-.75.77-1.17.11-.32.12-.75-.11-1-.12-.14-.33-.24-.54-.34l-1.53-.76c-.25-.12-.35-.42-.22-.67.12-.25.42-.35.67-.22l1.52.76c.26.13.58.29.83.56.45.49.57,1.26.32,2-.21.59-.6,1.07-.94,1.48-.1.12-.24.18-.38.18Z"/>
      <path class="cls-7" d="m142.94,393.23c-.08,0-.15-.02-.23-.05-.25-.13-.34-.43-.22-.67.19-.37.38-.77.48-1.17.06-.28.11-.69-.06-1.05-.16-.36-.5-.61-.76-.75-.36-.2-.78-.32-1.21-.46-.26-.08-.41-.36-.33-.62.08-.27.36-.41.62-.33.47.14.95.29,1.41.54.56.31.97.73,1.18,1.21.22.49.26,1.07.12,1.68-.12.52-.35,1-.56,1.41-.09.17-.26.27-.45.27Z"/>
      <path class="cls-7" d="m124.7,155.14c0,.89-1.05,1.61-2.34,1.61s-2.34-.72-2.34-1.61,1.05-1.61,2.34-1.61,2.34.72,2.34,1.61Z"/>
      <path class="cls-7" d="m104.78,96.91c.01.12-.14.22-.3.21-.89-.1-3.33-.43-3.54-1.35-.2-.87,1.84-4.66,2.77-6.34.1-.2.5-.15.52.06l.55,7.41Z"/>
      <path class="cls-8" d="m100.59,89.49c-.21,0-.4-.13-.47-.34-.02-.04-.46-1.12-2.43-1.12h-.02c-2.08,0-2.74.89-2.77.92-.16.22-.47.27-.69.12-.22-.16-.28-.46-.13-.69.04-.05.94-1.34,3.59-1.35,2.77-.05,3.37,1.72,3.4,1.79.09.26-.05.55-.31.64-.05.02-.11.03-.16.03Z"/>
      <path class="cls-8" d="m93.99,86.95c-.15,0-.29-.06-.39-.19-.17-.21-.14-.53.08-.7.92-.75,2.08-1.23,3.26-1.37,1.18-.14,2.42.07,3.49.58.25.12.35.42.24.67-.12.25-.42.35-.67.24-.9-.43-1.95-.6-2.94-.49-.99.12-1.97.53-2.75,1.16-.09.07-.2.11-.31.11Z"/>
      <path class="cls-8" d="m98.53,87.6c.19.06.17.38.17.6,0,.64-.51,1.16-1.15,1.16s-1.16-.51-1.16-1.15c0-.21.05-.4.15-.57,0,0,1.13-.29,2-.03Z"/>
      <path class="cls-8" d="m106.9,89.46c-.06,0-.11,0-.17-.03-.26-.09-.39-.37-.3-.63.02-.07.65-1.81,3.38-1.82,2.66,0,3.56,1.27,3.6,1.33.16.23.1.54-.13.7-.22.15-.53.1-.69-.12-.04-.05-.74-.87-2.77-.9-1.99,0-2.43,1.1-2.45,1.15-.08.2-.27.33-.47.33Z"/>
      <path class="cls-8" d="m113.49,86.88c-.11,0-.22-.04-.31-.11-.78-.62-1.76-1.03-2.76-1.14-1-.11-2.04.07-2.94.51-.25.12-.55.02-.67-.23-.12-.25-.02-.55.23-.67,1.07-.52,2.31-.73,3.49-.6,1.18.13,2.34.61,3.27,1.35.22.17.25.49.08.7-.1.12-.25.19-.39.19Z"/>
      <path class="cls-8" d="m110.95,87.57c.16.11.15.36.15.57,0,.64-.51,1.16-1.15,1.16s-1.16-.51-1.16-1.15c0-.22.06-.42.16-.6,0,0,1.52-.33,2,.02Z"/>
      <path class="cls-4" d="m99.06,94.98c.07,1.1-1.24,2.08-2.93,2.19-1.69.11-3.12-.69-3.19-1.79-.07-1.1,1.24-2.08,2.93-2.19,1.69-.11,3.12.69,3.19,1.79Z"/>
      <path class="cls-4" d="m114.2,94.26c.07,1.1-1.24,2.08-2.93,2.19-1.69.11-3.12-.69-3.19-1.79-.07-1.1,1.24-2.08,2.93-2.19,1.69-.11,3.12.69,3.19,1.79Z"/>
      <path class="cls-7" d="m90.32,95.14c-.22,0-.42-.14-.48-.36-.42-1.51-1.05-2.95-1.86-4.28-.14-.24-.07-.54.17-.69.23-.14.54-.07.69.17.86,1.41,1.52,2.93,1.97,4.53.07.27-.08.54-.35.62-.05.01-.09.02-.14.02Z"/>
      <path class="cls-7" d="m117.3,94.93s-.08,0-.12-.01c-.27-.06-.43-.33-.37-.6.4-1.65,1.05-3.22,1.94-4.67.14-.24.45-.31.69-.17.24.14.31.45.17.69-.83,1.36-1.44,2.83-1.82,4.38-.06.23-.26.38-.49.38Z"/>
      <path class="cls-8" d="m103.76,101.38c-.89,0-1.53-.14-1.59-.15-.27-.06-.44-.33-.38-.6.06-.27.33-.43.6-.38.03,0,3.5.76,5.43-1.55.18-.21.49-.24.7-.06.21.18.24.49.06.7-1.42,1.7-3.44,2.04-4.83,2.04Z"/>
    </g>
    <polygon class="cls-6" points="173.85 426.54 161.24 451.08 45.66 451.08 58.27 426.54 45.66 402 161.24 402 173.85 426.54"/>
    <g>
      <line class="cls-2" x1="100.7" y1="116.16" x2="132.7" y2="116.16"/>
      <line class="cls-2" x1="71.9" y1="133.76" x2="156.9" y2="133.76"/>
      <line class="cls-2" x1="70.3" y1="196.76" x2="167.1" y2="196.76"/>
      <line class="cls-2" x1="54.7" y1="223.06" x2="167.1" y2="223.06"/>
      <line class="cls-2" x1="59.4" y1="278.61" x2="101" y2="278.61"/>
      <line class="cls-2" x1="56.7" y1="329.46" x2="99.2" y2="329.46"/>
      <g class="cls-3">
        <path d="m141.7,110.74c0,1.72,1.23,2.6,2.4,2.6.67,0,1.31-.24,1.75-.45.04-.02.08-.04.12-.06.03,0,.06-.01.09-.01.19,0,.34.15.34.34v1.17c0,.12-.06.22-.15.28,0,0-.01,0-.02.01-.01,0-.03.01-.04.02,0,0,0,0,0,0-.35.18-1.11.49-2.09.49-2.24,0-4.18-1.53-4.18-4.4,0-2.16,1.13-4.4,4.18-4.4,1.05,0,1.76.32,2.09.51h0s.05.03.07.04c.08.06.13.16.13.27v1.14c0,.19-.15.34-.34.34-.04,0-.08,0-.12-.02-.02-.01-.05-.03-.08-.04-.4-.21-1.01-.44-1.76-.44-1.39,0-2.4.89-2.4,2.6Z"/>
        <path d="m153.74,108.33v3.67c0,1.13-.43,3.13-3.07,3.13-1.69,0-3.07-.85-3.07-3.13v-3.67c0-.16.13-.29.29-.29h1.08c.16,0,.29.13.29.29v3.63c0,1.12.47,1.57,1.4,1.57s1.4-.49,1.4-1.57v-3.63c0-.16.13-.29.29-.29h1.08c.16,0,.29.13.29.29Z"/>
        <path d="m161.29,111.77s0,0,0,0c-.01.12-.09.21-.2.25-.03.01-.06.02-.09.02h-4.38c0,1.08.64,1.64,1.78,1.64.81,0,1.44-.3,1.84-.46.02,0,.04-.02.06-.03h0s.07-.01.1-.01c.17,0,.32.13.34.3v.96c-.01.1-.07.19-.15.24-.01,0-.03.01-.04.02,0,0-.01,0-.02.01-.33.17-1.04.44-2.13.44-1.78,0-3.48-1.19-3.48-3.64s1.51-3.65,3.23-3.65c2.04,0,3.13,1.68,3.13,3.19,0,.6,0,.46,0,.72Zm-1.58-1.11c0-.71-.45-1.42-1.55-1.42-.76,0-1.6.57-1.6,1.42h3.15Z"/>
        <path d="m164.24,105.42v9.18c0,.19-.15.34-.34.34h-.98c-.19,0-.34-.15-.34-.34v-9.18c0-.19.15-.34.34-.34h.98c.19,0,.34.15.34.34Z"/>
        <path d="m167.47,105.42v9.18c0,.19-.15.34-.34.34h-.98c-.19,0-.34-.15-.34-.34v-9.18c0-.19.15-.34.34-.34h.98c.19,0,.34.15.34.34Z"/>
        <path d="m176,111.49c0,2.01-1.63,3.64-3.64,3.64s-3.64-1.63-3.64-3.64,1.63-3.64,3.64-3.64,3.64,1.63,3.64,3.64Zm-1.76,0c0-1.09-.84-1.98-1.88-1.98s-1.88.88-1.88,1.98.84,1.98,1.88,1.98,1.88-.88,1.88-1.98Z"/>
      </g>
      <g class="cls-3">
        <path d="m163.7,129.31v.76c0,.14-.12.26-.26.26h-1.8v4.92c0,.14-.12.26-.26.26h-.81c-.14,0-.26-.12-.26-.26v-4.92h-1.8c-.14,0-.26-.12-.26-.26v-.76c0-.14.12-.26.26-.26h4.93c.14,0,.26.12.26.26Z"/>
        <path d="m169.14,132.86c0,1.55-1.26,2.81-2.81,2.81s-2.81-1.26-2.81-2.81,1.26-2.81,2.81-2.81,2.81,1.26,2.81,2.81Zm-1.36,0c0-.84-.65-1.52-1.45-1.52s-1.45.68-1.45,1.52.65,1.52,1.45,1.52,1.45-.68,1.45-1.52Z"/>
        <path d="m173.57,130.43v.71c0,.2-.19.35-.39.31-.1-.02-.22-.04-.35-.04-.91,0-1.3.56-1.45.92v2.97c0,.12-.1.23-.23.23h-.83c-.12,0-.23-.1-.23-.23v-4.87c0-.12.1-.23.23-.23h.83c.12,0,.23.1.23.23v.48c.19-.28.66-.84,1.46-.84.21,0,.38.03.5.06.14.04.23.16.23.3Z"/>
        <path d="m178.41,134.81v.32c0,.22-.17.39-.39.39h-3.55c-.21,0-.39-.17-.39-.39v-.51c0-.19.08-.28.16-.37.75-.88,2.58-2.97,2.58-2.97h-2.22c-.24,0-.35-.17-.35-.39v-.28c0-.21.12-.39.34-.39h3.23c.21,0,.35.17.35.39v.43c0,.12-.08.22-.15.31-.71.84-2.59,3.08-2.59,3.08h2.6c.21,0,.39.17.39.39Z"/>
        <path d="m184.51,132.86c0,1.55-1.26,2.81-2.81,2.81s-2.81-1.26-2.81-2.81,1.26-2.81,2.81-2.81,2.81,1.26,2.81,2.81Zm-1.35,0c0-.84-.65-1.52-1.45-1.52s-1.45.68-1.45,1.52.65,1.52,1.45,1.52,1.45-.68,1.45-1.52Z"/>
      </g>
      <g class="cls-3">
        <path d="m165.74,175.09c0,1.32.95,2.01,1.85,2.01.51,0,1.01-.18,1.35-.35.03-.01.06-.03.09-.04.02,0,.04,0,.07,0,.14,0,.26.12.26.26v.91c0,.09-.05.17-.11.21,0,0,0,0-.02,0,0,0-.02,0-.03.02,0,0,0,0,0,0-.27.14-.85.38-1.61.38-1.73,0-3.22-1.18-3.22-3.39,0-1.67.87-3.39,3.22-3.39.81,0,1.36.25,1.61.39,0,0,0,0,0,0,.02.01.04.02.05.03.06.05.1.12.1.21v.88c0,.14-.12.26-.26.26-.03,0-.07,0-.1-.02-.02-.01-.04-.02-.06-.03-.31-.16-.78-.34-1.36-.34-1.07,0-1.85.68-1.85,2.01Z"/>
        <path d="m170.24,171.68c0-.42.34-.76.76-.76s.76.34.76.76-.34.76-.76.76-.76-.34-.76-.76Zm1.4,1.55v4.87c0,.12-.1.23-.23.23h-.83c-.12,0-.23-.1-.23-.23v-4.87c0-.12.1-.23.23-.23h.83c.12,0,.23.1.23.23Z"/>
        <path d="m177.27,175.42v2.67c0,.13-.11.24-.24.24h-.81c-.13,0-.24-.11-.24-.24v-2.94c0-.83-.36-.98-.81-.98-.74,0-1.1,1.14-1.1,1.14v2.8c0,.12-.1.23-.23.23h-.83c-.12,0-.23-.1-.23-.23v-4.87c0-.12.1-.23.23-.23h.83c.12,0,.23.1.23.23v.32c.26-.29.72-.69,1.29-.69,1.58,0,1.9,1.27,1.9,2.56Z"/>
        <path d="m182.06,177.3v.71c0,.11-.06.21-.16.25-.2.09-.56.22-1.02.22-1.77,0-2.08-.95-2.08-1.89v-2.49h-.55c-.12,0-.23-.1-.23-.23v-.62c0-.12.1-.23.23-.23h.55v-1.55c0-.12.1-.23.23-.23h.83c.12,0,.23.1.23.23v1.55h1.64c.12,0,.23.1.23.23v.62c0,.12-.1.23-.23.23h-1.64v2.17c0,.61.17.93.79.93.31,0,.61-.08.82-.15.18-.06.36.07.36.26Z"/>
        <path d="m187.65,173.23v2.83c0,.87-.33,2.42-2.37,2.42-1.3,0-2.37-.66-2.37-2.42v-2.83c0-.12.1-.23.23-.23h.83c.12,0,.23.1.23.23v2.8c0,.86.36,1.21,1.08,1.21s1.08-.38,1.08-1.21v-2.8c0-.12.1-.23.23-.23h.83c.12,0,.23.1.23.23Z"/>
        <path d="m192.26,173.23v.71c0,.2-.19.35-.39.31-.1-.02-.22-.04-.35-.04-.92,0-1.3.56-1.45.92v2.97c0,.12-.1.23-.23.23h-.83c-.12,0-.23-.1-.23-.23v-4.87c0-.12.1-.23.23-.23h.83c.12,0,.23.1.23.23v.48c.19-.28.66-.84,1.46-.84.21,0,.38.03.5.06.14.04.23.16.23.3Z"/>
        <path d="m197.94,177.38v.86c0,.08-.05.15-.13.16-.06.01-.14.02-.2.02-.88,0-1.2-.46-1.29-.64-.15.21-.59.7-1.45.7-1.1,0-2.03-.48-2.03-1.84s1.3-1.74,1.96-1.74,1.31.41,1.31.41c0-.68-.09-1.26-1.22-1.26-.72,0-1.23.2-1.5.34-.11.06-.24-.02-.24-.14v-.84c0-.06.03-.12.09-.14.22-.11.83-.39,1.6-.39,1.75,0,2.51.92,2.51,2.12v1.82c0,.48.35.42.42.42h0c.09,0,.17.07.17.16Zm-1.82-.5c0-.18,0-.37,0-.56-.24-.12-.86-.39-1.28-.39-.35,0-.71.21-.71.7s.4.69.99.69c.47,0,.83-.26,1.01-.44Z"/>
      </g>
      <g class="cls-3">
        <path d="m173.34,195.92c0,1.32.95,2.01,1.85,2.01.51,0,1.01-.18,1.35-.35.03-.01.06-.03.09-.04.02,0,.04,0,.07,0,.14,0,.26.12.26.26v.91c0,.09-.05.17-.11.21,0,0,0,0-.02,0,0,0-.02,0-.03.02,0,0,0,0,0,0-.27.14-.85.38-1.61.38-1.73,0-3.22-1.18-3.22-3.39,0-1.67.87-3.39,3.22-3.39.81,0,1.36.25,1.61.39,0,0,0,0,0,0,.02.01.04.02.05.03.06.05.1.12.1.21v.88c0,.14-.12.26-.26.26-.03,0-.07,0-.1-.02-.02-.01-.04-.02-.06-.03-.31-.16-.78-.34-1.36-.34-1.07,0-1.85.68-1.85,2.01Z"/>
        <path d="m182.86,198.22v.86c0,.08-.06.15-.13.16-.06.01-.14.02-.2.02-.88,0-1.2-.46-1.29-.64-.15.21-.59.7-1.45.7-1.1,0-2.03-.48-2.03-1.84s1.3-1.74,1.96-1.74,1.31.41,1.31.41c0-.68-.09-1.26-1.22-1.26-.72,0-1.23.2-1.5.34-.11.06-.23-.02-.23-.14v-.84c0-.06.03-.12.09-.14.22-.11.83-.39,1.6-.39,1.75,0,2.5.92,2.5,2.12v1.82c0,.48.35.42.42.42h0c.09,0,.17.07.17.16Zm-1.83-.5c0-.18,0-.37,0-.56-.24-.12-.86-.39-1.28-.39-.35,0-.71.21-.71.7s.4.69.99.69c.47,0,.82-.26,1.01-.44Z"/>
        <path d="m188.93,191.82v7.08c0,.15-.12.26-.27.26h-.75c-.15,0-.27-.12-.27-.26v-.3s-.52.72-1.58.72c-1.74,0-2.6-1.3-2.6-2.79,0-1.4.74-2.82,2.6-2.82,1.07,0,1.58.72,1.58.72v-2.6c0-.15.12-.26.27-.26h.75c.15,0,.27.12.27.26Zm-1.28,4.06s-.27-.88-1.42-.88-1.43.9-1.43,1.52.45,1.5,1.43,1.5,1.42-.88,1.42-.88v-1.25Z"/>
        <path d="m194.83,196.72h0c0,.09-.07.17-.15.19-.02,0-.05.01-.07.01h-3.38c0,.84.5,1.26,1.37,1.26.62,0,1.11-.23,1.42-.36.02,0,.03-.01.05-.02h0s.05-.01.08-.01c.13,0,.24.1.26.23v.74c0,.08-.05.14-.11.18,0,0-.02.01-.03.02,0,0-.01,0-.02,0-.25.13-.8.34-1.64.34-1.37,0-2.68-.92-2.68-2.8s1.16-2.81,2.49-2.81c1.58,0,2.41,1.3,2.41,2.46,0,.46,0,.36,0,.56Zm-1.21-.85c0-.55-.35-1.1-1.2-1.1-.58,0-1.23.44-1.23,1.1h2.43Z"/>
        <path d="m199.29,194.07v.71c0,.2-.19.35-.39.31-.1-.02-.22-.04-.35-.04-.92,0-1.3.56-1.45.92v2.97c0,.12-.1.23-.23.23h-.83c-.12,0-.23-.1-.23-.23v-4.87c0-.12.1-.23.23-.23h.83c.12,0,.23.1.23.23v.48c.19-.28.66-.84,1.46-.84.21,0,.38.03.5.06.14.04.23.16.23.3Z"/>
        <path d="m204.97,198.22v.86c0,.08-.05.15-.13.16-.06.01-.14.02-.2.02-.88,0-1.2-.46-1.29-.64-.15.21-.59.7-1.45.7-1.1,0-2.03-.48-2.03-1.84s1.3-1.74,1.96-1.74,1.31.41,1.31.41c0-.68-.09-1.26-1.22-1.26-.72,0-1.23.2-1.5.34-.11.06-.24-.02-.24-.14v-.84c0-.06.03-.12.09-.14.22-.11.83-.39,1.6-.39,1.75,0,2.51.92,2.51,2.12v1.82c0,.48.35.42.42.42h0c.09,0,.17.07.17.16Zm-1.82-.5c0-.18,0-.37,0-.56-.24-.12-.86-.39-1.28-.39-.35,0-.71.21-.71.7s.4.69.99.69c.47,0,.83-.26,1.01-.44Z"/>
      </g>
      <g class="cls-3">
        <path d="m177.46,226.59c0,.09-.05.17-.12.22,0,0-.96.53-2.06.53-1.78,0-3.32-1.18-3.32-3.39,0-1.67.9-3.39,3.32-3.39.84,0,1.4.25,1.66.39,0,0,0,0,0,0,.02.01.04.02.05.03.06.05.11.12.11.21v.88c0,.14-.12.26-.27.26-.04,0-.07,0-.1-.02-.02-.01-.04-.02-.06-.03-.32-.16-.8-.34-1.4-.34-1.1,0-1.91.68-1.91,2.01s.97,2.01,1.91,2.01c.31,0,.55-.04.84-.15v-.95h-1.06c-.14,0-.26-.12-.26-.26v-.81c0-.14.12-.26.26-.26h2.14c.14,0,.26.12.26.26v2.81Z"/>
        <path d="m179.84,219.84v7.08c0,.15-.12.26-.26.26h-.75c-.15,0-.26-.12-.26-.26v-7.08c0-.15.12-.26.26-.26h.75c.15,0,.26.12.26.26Z"/>
        <path d="m185.7,222.09v2.83c0,.87-.33,2.42-2.37,2.42-1.3,0-2.37-.66-2.37-2.42v-2.83c0-.12.1-.23.23-.23h.83c.12,0,.23.1.23.23v2.8c0,.86.36,1.21,1.08,1.21s1.08-.38,1.08-1.21v-2.8c0-.12.1-.23.23-.23h.83c.12,0,.23.1.23.23Z"/>
        <path d="m190.48,226.16v.71c0,.11-.06.21-.16.25-.2.09-.56.22-1.02.22-1.77,0-2.09-.95-2.09-1.89v-2.49h-.54c-.12,0-.23-.1-.23-.23v-.62c0-.12.1-.23.23-.23h.54v-1.55c0-.12.1-.23.23-.23h.83c.12,0,.23.1.23.23v1.55h1.64c.12,0,.23.1.23.23v.62c0,.12-.1.23-.23.23h-1.64v2.17c0,.61.17.93.79.93.31,0,.61-.08.82-.15.18-.06.36.07.36.26Z"/>
        <path d="m195.99,224.74s0,0,0,0c0,.09-.07.16-.15.19-.02,0-.05.01-.07.01h-3.38c0,.84.5,1.26,1.38,1.26.62,0,1.11-.23,1.42-.36.02,0,.04-.01.05-.02h0s.05-.01.08-.01c.13,0,.24.1.26.23v.74c0,.08-.05.14-.11.18,0,0-.02.01-.03.02,0,0-.01,0-.02,0-.25.13-.8.34-1.64.34-1.37,0-2.68-.92-2.68-2.8s1.16-2.81,2.49-2.81c1.58,0,2.41,1.3,2.41,2.46,0,.46,0,.36,0,.56Zm-1.21-.85c0-.55-.35-1.1-1.2-1.1-.58,0-1.23.44-1.23,1.1h2.43Z"/>
        <path d="m202.34,224.52c0,1.55-1.26,2.81-2.81,2.81s-2.81-1.26-2.81-2.81,1.26-2.81,2.81-2.81,2.81,1.26,2.81,2.81Zm-1.36,0c0-.84-.65-1.52-1.45-1.52s-1.45.68-1.45,1.52.65,1.52,1.45,1.52,1.45-.68,1.45-1.52Z"/>
        <path d="m207.35,225.74c0,1.09-.81,1.59-2.31,1.59-.77,0-1.42-.24-1.72-.37,0,0,0,0,0,0-.02,0-.04-.02-.05-.03-.08-.05-.12-.13-.12-.22v-.68c0-.14.12-.26.26-.26.03,0,.06,0,.08.01.01,0,.03.01.04.02,0,0,0,0,0,0,.35.15.91.33,1.51.33.83,0,1-.27,1-.4,0-.89-2.88-.52-2.88-2.51,0-.72.57-1.51,2.2-1.51.79,0,1.36.22,1.62.35,0,0,.02,0,.03.01.08.04.13.12.13.21v.65c0,.14-.12.25-.26.25-.03,0-.06,0-.09-.02-.01,0-.03-.01-.04-.02-.29-.13-.74-.28-1.37-.28-.59,0-.9.14-.9.35,0,.8,2.88.46,2.88,2.51Z"/>
      </g>
      <g class="cls-3">
        <path d="m28.16,327.71c0,.83-.37,1.85-1.94,1.85h-1.02v1.66c0,.12-.1.23-.23.23h-.7c-.12,0-.23-.1-.23-.23v-5.13c0-.12.1-.23.23-.23h1.94c1.6,0,1.94,1.03,1.94,1.85Zm-1.17,0c0-.43-.26-.74-.79-.74h-1v1.49h1.01c.55,0,.77-.34.77-.75Z"/>
        <path d="m33.16,330.63v.74c0,.07-.05.12-.11.14-.05,0-.12.02-.17.02-.76,0-1.04-.4-1.12-.56-.13.18-.51.6-1.25.6-.95,0-1.75-.41-1.75-1.59s1.12-1.5,1.69-1.5,1.13.35,1.13.35c0-.58-.08-1.09-1.05-1.09-.62,0-1.06.17-1.29.29-.09.05-.2-.02-.2-.12v-.72c0-.05.03-.1.07-.12.19-.1.71-.34,1.38-.34,1.51,0,2.16.8,2.16,1.83v1.57c0,.42.3.37.36.37h0c.08,0,.15.06.15.14Zm-1.57-.43c0-.15,0-.32,0-.48-.21-.1-.74-.33-1.11-.33-.3,0-.61.18-.61.61s.35.59.86.59c.41,0,.71-.23.87-.38Z"/>
        <path d="m37.78,328.94v2.3c0,.11-.09.2-.2.2h-.7c-.11,0-.2-.09-.2-.2v-2.54c0-.72-.31-.85-.7-.85-.64,0-.95.98-.95.98v2.41c0,.11-.09.19-.19.19h-.72c-.11,0-.19-.09-.19-.19v-4.2c0-.11.09-.19.19-.19h.72c.11,0,.19.09.19.19v.28c.22-.25.62-.6,1.11-.6,1.36,0,1.64,1.09,1.64,2.21Z"/>
        <path d="m41.92,330.56v.61c0,.09-.05.18-.14.22-.17.08-.48.19-.88.19-1.52,0-1.8-.82-1.8-1.63v-2.15h-.47c-.11,0-.19-.09-.19-.19v-.53c0-.11.09-.2.19-.2h.47v-1.34c0-.11.09-.19.19-.19h.72c.11,0,.19.09.19.19v1.34h1.41c.11,0,.19.09.19.2v.53c0,.11-.09.19-.19.19h-1.41v1.87c0,.53.15.81.69.81.27,0,.52-.07.71-.13.15-.05.31.06.31.22Z"/>
        <path d="m47.26,329.15c0,1.34-1.08,2.42-2.42,2.42s-2.42-1.08-2.42-2.42,1.08-2.42,2.42-2.42,2.42,1.08,2.42,2.42Zm-1.17,0c0-.73-.56-1.32-1.25-1.32s-1.25.59-1.25,1.32.56,1.32,1.25,1.32,1.25-.59,1.25-1.32Z"/>
        <path d="m51.09,327.04v.61c0,.18-.16.31-.33.27-.09-.02-.19-.04-.3-.04-.79,0-1.12.48-1.25.8v2.56c0,.11-.09.19-.19.19h-.72c-.11,0-.19-.09-.19-.19v-4.2c0-.11.09-.19.19-.19h.72c.11,0,.19.09.19.19v.41c.16-.24.57-.73,1.26-.73.18,0,.33.02.43.05.12.03.2.14.2.26Z"/>
        <path d="m54.77,327.04v.61c0,.18-.16.31-.33.27-.09-.02-.19-.04-.3-.04-.79,0-1.12.48-1.25.8v2.56c0,.11-.09.19-.19.19h-.72c-.11,0-.19-.09-.19-.19v-4.2c0-.11.09-.19.19-.19h.72c.11,0,.19.09.19.19v.41c.16-.24.57-.73,1.26-.73.18,0,.33.02.43.05.12.03.2.14.2.26Z"/>
        <path d="m55.35,325.71c0-.36.29-.66.66-.66s.66.29.66.66-.29.66-.66.66-.66-.29-.66-.66Zm1.21,1.34v4.2c0,.11-.09.19-.2.19h-.72c-.11,0-.2-.09-.2-.19v-4.2c0-.11.09-.19.2-.19h.72c.11,0,.2.09.2.19Z"/>
        <path d="m58.72,325.1v6.11c0,.13-.1.23-.23.23h-.65c-.13,0-.23-.1-.23-.23v-6.11c0-.13.1-.23.23-.23h.65c.13,0,.23.1.23.23Z"/>
        <path d="m60.86,325.1v6.11c0,.13-.1.23-.23.23h-.65c-.13,0-.23-.1-.23-.23v-6.11c0-.13.1-.23.23-.23h.65c.13,0,.23.1.23.23Z"/>
        <path d="m66.13,330.63v.74c0,.07-.05.12-.11.14-.05,0-.12.02-.17.02-.76,0-1.04-.4-1.12-.56-.13.18-.51.6-1.25.6-.95,0-1.75-.41-1.75-1.59s1.12-1.5,1.69-1.5,1.13.35,1.13.35c0-.58-.08-1.09-1.05-1.09-.62,0-1.06.17-1.29.29-.09.05-.2-.02-.2-.12v-.72c0-.05.03-.1.07-.12.19-.1.71-.34,1.38-.34,1.51,0,2.16.8,2.16,1.83v1.57c0,.42.3.37.36.37h0c.08,0,.15.06.15.14Zm-1.58-.43c0-.15,0-.32,0-.48-.21-.1-.74-.33-1.11-.33-.3,0-.61.18-.61.61s.35.59.86.59c.41,0,.71-.23.87-.38Z"/>
      </g>
      <g class="cls-3">
        <path d="m42.75,275.34v5.13c0,.12-.1.23-.23.23h-.7c-.12,0-.23-.1-.23-.23v-2.93l-1.2,2.98-.02.06c-.04.07-.11.11-.2.11h-.9c-.08,0-.15-.04-.19-.11l-.03-.07-1.19-2.97v2.93c0,.12-.1.23-.23.23h-.7c-.12,0-.23-.1-.23-.23v-5.13c0-.11.08-.2.18-.22h0s1.05,0,1.05,0c.08,0,.15.04.19.11l.03.07,1.57,3.91,1.55-3.88.05-.14s.1-.08.17-.08h1.06,0c.1.03.18.12.18.23Z"/>
        <path d="m47.85,276.31v2.44c0,.75-.29,2.08-2.04,2.08-1.13,0-2.04-.57-2.04-2.08v-2.44c0-.11.09-.19.19-.19h.72c.11,0,.19.09.19.19v2.42c0,.74.31,1.04.93,1.04s.93-.33.93-1.04c0-.24,0-2.42,0-2.42,0-.11.09-.19.19-.19h.72c.11,0,.19.09.19.19Z"/>
        <path d="m52.32,279.46c0,.94-.7,1.37-2,1.37-.67,0-1.23-.2-1.49-.32,0,0,0,0,0,0-.02,0-.03-.02-.05-.02-.06-.04-.11-.11-.11-.19v-.58c0-.12.1-.23.23-.23.03,0,.05,0,.07.01.01,0,.02.01.04.02,0,0,0,0,0,0,.31.13.79.29,1.31.29.72,0,.86-.23.86-.34,0-.77-2.49-.45-2.49-2.17,0-.62.49-1.31,1.9-1.31.68,0,1.17.19,1.4.3,0,0,.01,0,.02.01.07.04.11.11.12.19v.56c0,.12-.1.21-.23.21-.03,0-.05,0-.08-.01-.01,0-.02-.01-.04-.02-.25-.12-.64-.24-1.18-.24-.51,0-.78.12-.78.3,0,.69,2.49.39,2.49,2.17Z"/>
        <path d="m54.3,274.37v6.11c0,.13-.1.23-.23.23h-.65c-.13,0-.23-.1-.23-.23v-6.11c0-.13.1-.23.23-.23h.65c.13,0,.23.1.23.23Z"/>
        <path d="m59.97,278.41c0,1.34-1.08,2.42-2.42,2.42s-2.42-1.08-2.42-2.42,1.08-2.42,2.42-2.42,2.42,1.08,2.42,2.42Zm-1.17,0c0-.73-.56-1.32-1.25-1.32s-1.25.59-1.25,1.32.56,1.32,1.25,1.32,1.25-.59,1.25-1.32Z"/>
      </g>
      <circle class="cls-1" cx="103.4" cy="115.46" r="4.1"/>
      <circle class="cls-1" cx="103.8" cy="196.76" r="4.1"/>
      <circle class="cls-1" cx="102.8" cy="133.76" r="4.1"/>
      <circle class="cls-1" cx="103.4" cy="175.16" r="4.1"/>
      <circle class="cls-1" cx="105.4" cy="223.66" r="4.1"/>
      <circle class="cls-1" cx="88.8" cy="278.61" r="4.1"/>
      <circle class="cls-1" cx="88.2" cy="329.46" r="4.1"/>
      <line class="cls-2" x1="74.7" y1="175.16" x2="163.99" y2="175.16"/>
    </g>
  </g>
  <g id="TEXTS">
    <g>
      <path class="cls-5" d="m93.42,418.33c0,1.29-.43,3.14-4.17,3.14-1.58,0-2.68-.45-3.17-.71,0,0,0,0-.01,0-.05-.03-.1-.05-.14-.08-.09-.08-.15-.2-.15-.33v-1.38c0-.24.19-.43.43-.43.05,0,.1,0,.14.02.04.02.07.04.11.06.6.31,1.58.67,2.79.67,1.78,0,1.97-.48,1.97-1,0-1.81-5.4-1.21-5.4-5.04,0-2.52,2.5-2.97,4.03-2.97,1.4,0,2.47.44,2.95.68.04.02.08.04.11.06.08.06.15.16.17.26v1.51c-.04.2-.21.35-.42.35-.06,0-.11-.01-.17-.03,0,0,0,0,0,0-.02-.01-.05-.03-.07-.04,0,0,0,0,0,0-.53-.28-1.37-.59-2.54-.59-1.47,0-1.85.32-1.85.81,0,1.74,5.4.95,5.4,5.06Z"/>
      <path class="cls-5" d="m105.54,415.87c0,3.09-1.94,5.6-5.4,5.6s-5.4-2.51-5.4-5.6,1.92-5.6,5.4-5.6,5.4,2.51,5.4,5.6Zm-2.29,0c0-1.83-1.14-3.32-3.1-3.32s-3.1,1.48-3.1,3.32,1.15,3.32,3.1,3.32,3.1-1.48,3.1-3.32Z"/>
      <path class="cls-5" d="m115.56,417.81c0,2.03-1.12,3.4-3.38,3.4h-4.53c-.24,0-.43-.19-.43-.43v-9.83c0-.24.19-.43.43-.43h3.88c2.82,0,3.29,1.76,3.29,2.95s-.81,1.77-.81,1.77c0,0,1.54.63,1.54,2.57Zm-2.19,0c0-1.21-1.04-1.29-1.65-1.29h-2.29v2.64h2.44c.63,0,1.51-.15,1.51-1.36Zm-3.94-5.26v2.04h1.99c.32,0,1.32-.05,1.32-.99s-.8-1.06-1.2-1.06h-2.12Z"/>
      <path class="cls-5" d="m125.66,420.78c0,.24-.19.43-.43.43h-1.53c-.14,0-.27-.07-.35-.17l-.06-.11-1.76-3.32s-.09,0-.13,0h-1.95v3.17c0,.24-.19.43-.43.43h-1.34c-.24,0-.43-.19-.43-.43v-9.83c0-.24.19-.43.43-.43h3.71c3.07,0,3.72,1.97,3.72,3.54,0,1.05-.31,2.26-1.39,2.96l1.85,3.5.06.11s.03.09.03.14Zm-6.2-5.27h1.93c1.06,0,1.48-.65,1.48-1.44s-.5-1.41-1.51-1.41h-1.91v2.86Z"/>
      <path class="cls-5" d="m134.67,419.51v1.29c0,.23-.17.42-.38.42h-6.63c-.24,0-.43-.19-.43-.43v-9.83c0-.24.19-.43.43-.43h6.61c.24,0,.36.19.36.42v1.29c0,.23-.17.42-.38.42h-4.81v2.16h4.45c.24,0,.36.19.36.42v1.29c0,.23-.18.42-.38.42h-4.42v2.16h4.88c.24,0,.36.19.36.42Z"/>
      <path class="cls-5" d="m99.28,432.4c0,1.58-.71,3.54-3.71,3.54h-1.95v3.17c0,.24-.19.43-.43.43h-1.34c-.24,0-.43-.19-.43-.43v-9.83c0-.24.19-.43.43-.43h3.71c3.07,0,3.72,1.97,3.72,3.54Zm-2.24,0c0-.83-.51-1.41-1.51-1.41h-1.91v2.86h1.94c1.06,0,1.48-.65,1.48-1.44Z"/>
      <path class="cls-5" d="m108.27,437.84v1.29c0,.23-.17.42-.38.42h-6.63c-.24,0-.43-.19-.43-.43v-9.83c0-.24.19-.43.43-.43h6.61c.24,0,.36.19.36.42v1.29c0,.23-.17.42-.38.42h-4.81v2.16h4.45c.24,0,.36.19.36.42v1.29c0,.23-.18.42-.38.42h-4.42v2.16h4.88c.24,0,.36.19.36.42Z"/>
      <path class="cls-5" d="m117.42,436.66c0,1.29-.43,3.14-4.18,3.14-1.58,0-2.68-.45-3.17-.71,0,0,0,0-.01,0-.05-.03-.1-.05-.14-.08-.09-.08-.15-.2-.15-.33v-1.38c0-.24.19-.43.43-.43.05,0,.1,0,.14.02.03.02.07.04.11.06.6.31,1.58.67,2.79.67,1.78,0,1.97-.48,1.97-1,0-1.81-5.4-1.21-5.4-5.04,0-2.52,2.49-2.97,4.03-2.97,1.4,0,2.47.44,2.95.68.04.02.08.04.11.06.08.06.15.16.17.26v1.51c-.04.2-.21.35-.42.35-.06,0-.11-.01-.16-.03,0,0,0,0,0,0-.02-.01-.05-.03-.07-.04,0,0,0,0,0,0-.53-.28-1.37-.59-2.54-.59-1.47,0-1.85.32-1.85.81,0,1.74,5.4.95,5.4,5.06Z"/>
      <path class="cls-5" d="m129.54,434.21c0,3.09-1.94,5.6-5.4,5.6s-5.4-2.51-5.4-5.6,1.92-5.6,5.4-5.6,5.4,2.51,5.4,5.6Zm-2.29,0c0-1.83-1.14-3.32-3.1-3.32s-3.1,1.48-3.1,3.32,1.15,3.32,3.1,3.32,3.1-1.48,3.1-3.32Z"/>
    </g>
  </g>
</svg>